<svg xmlns="http://www.w3.org/2000/svg" viewBox="0 0 212.85 198.3"><g data-name="Layer 2"><g data-name="Layer 1"><path d="M0 99.73a98.81 98.81 0 0 0 18.26 56.21L85.49 0C32.42 7.56-.1 53.67 0 99.73z" fill="#ff6400"/><path d="M212.76 158.64c-11.41 0-19.19-1-25.17-6.43 4.91-7.53 15.76-23.63 15.69-55.53-.1-43.1-31.49-86.12-81.22-95.77L96.59 42.1q2-.16 4.14-.17h.27c28.53-.06 53.2 20.89 53.28 54.85 0 9.86-2 18.42-5.13 24.39-9.88-10.87-17.41-18.11-30.14-26.9-14.55-10.07-26.74-12.89-40.74-12.86-2.14 0-4.19.12-6.17.3l-49.45 80c17.68 21.65 44.93 36.7 79 36.62 12.71 0 31.63-1.37 53.9-15.16 5.2 5.43 18.7 15 45.15 14.94 4.67 0 8.55-.28 12.19-.55zm-111.51-3.38H101c-15.82 0-37.1-9.51-45.44-29.46 3.89-1.57 9.59-2.88 17.89-2.89a48.12 48.12 0 0 1 30.88 11.34 105.4 105.4 0 0 1 16.38 17.08c-3.9 2.33-11.71 3.91-19.46 3.93z" fill="#231f20"/></g></g></svg>